<svg width="66" height="88" viewBox="0 0 66 88" fill="none" xmlns="http://www.w3.org/2000/svg">
<path d="M54.2711 87.0341C58.1183 84.1821 62.5772 81.8305 65.4809 77.8964C65.962 77.2605 65.9442 76.3592 65.2915 75.8044C61.7338 72.8673 57.0881 71.9127 53.4281 69.1796C51.9074 68.0394 49.9964 70.3175 51.541 71.4611C54.0528 73.35 57.0762 74.3889 59.8472 75.829C52.2393 78.1928 42.3184 79.6677 36.265 73.362C40.2024 72.4421 44.5319 70.655 46.7836 67.1866C48.9159 63.8712 48.6017 59.235 45.3756 56.7096C42.1496 54.1842 37.4092 54.5765 34.3371 57.1261C31.2104 59.7165 29.7825 64.0799 30.3421 68.0224C30.5034 69.1143 30.7945 70.1519 31.2392 71.1385C24.1387 71.4855 17.1246 68.4923 12.4141 63.0342C7.99757 57.9095 5.8648 51.1431 7.11693 44.5925C11.1327 48.0809 16.411 50.0732 21.7181 49.3002C26.3797 48.6051 30.9203 45.8522 32.8673 41.4414C34.6745 37.3266 33.9638 32.2207 30.5768 29.1136C27.1864 26.0303 22.0358 25.8782 17.887 27.2538C13.4343 28.7075 9.78554 32.0493 7.34633 35.9768C6.77661 36.8915 6.30254 37.8199 5.87289 38.7789C5.39077 38.0542 4.96329 37.2886 4.58701 36.5061C0.642716 27.9021 4.24533 17.5328 10.7096 11.216C17.29 4.77007 27.022 1.88347 36.098 3.42182C37.9802 3.73905 38.4938 0.824273 36.6116 0.507047C26.8729 -1.17448 16.5877 1.8275 9.29365 8.48743C1.96892 15.1916 -2.12173 26.0742 1.12662 35.7936C1.90017 38.0661 3.10739 40.2062 4.66623 42.1049C2.74157 49.0939 4.16455 56.7308 8.46905 62.8112C14.0283 70.6984 23.3967 74.975 32.8841 73.9727C34.2004 75.691 35.9194 77.151 37.8363 78.2506C42.3193 80.8582 47.6956 81.3098 52.7772 80.5775C55.5162 80.191 58.1797 79.478 60.809 78.6629C58.314 80.9304 55.2857 82.6603 52.5855 84.6557C51.0391 85.7468 52.7179 88.1728 54.2711 87.0341ZM33.7301 63.0885C34.8037 60.0107 37.6504 57.5018 41.0697 57.9899C44.5128 58.4813 46.1309 62.0161 44.603 65.0291C43.0068 68.178 38.9469 69.6149 35.7301 70.4433C35.2725 70.5724 34.7978 70.6504 34.3436 70.7556C33.0919 68.4148 32.8235 65.68 33.7301 63.0885ZM7.96845 41.3616C7.97185 41.3378 7.97525 41.314 8.00256 41.2936C10.5353 34.4885 17.9928 27.196 25.9425 29.7883C29.6731 31.0009 31.4451 34.825 30.6725 38.5288C29.8284 42.5625 26.1143 45.3363 22.235 46.1916C17.0204 47.3422 11.677 45.1219 7.96845 41.3616Z" fill="#37C3E4"/>
</svg>
