<svg width="196" height="36" viewBox="0 0 196 36" fill="none" xmlns="http://www.w3.org/2000/svg">
<g filter="url(#filter0_d_1_49)">
<g filter="url(#filter1_d_1_49)">
<path d="M11.26 27.61C10.1 27.61 9.04 27.3 8.08 26.68C7.12 26.08 6.36 25.22 5.8 24.1C5.24 22.98 4.96 21.64 4.96 20.08C4.96 18.54 5.2 16.99 5.68 15.43C6.16 13.85 6.82 12.35 7.66 10.93C8.5 9.49 9.48 8.21 10.6 7.09C11.72 5.95 12.91 5.06 14.17 4.42C15.45 3.76 16.76 3.43 18.1 3.43C18.3 3.43 18.59 3.47 18.97 3.55C19.37 3.63 19.76 3.87 20.14 4.27C20.02 4.25 19.88 4.24 19.72 4.24C19.58 4.22 19.43 4.21 19.27 4.21C18.23 4.21 17.18 4.54 16.12 5.2C15.06 5.84 14.05 6.71 13.09 7.81C12.13 8.91 11.27 10.16 10.51 11.56C9.77 12.94 9.18 14.38 8.74 15.88C8.3 17.38 8.08 18.84 8.08 20.26C8.08 21.3 8.22 22.27 8.5 23.17C8.78 24.07 9.23 24.79 9.85 25.33C10.47 25.89 11.29 26.17 12.31 26.17C13.41 26.17 14.44 25.84 15.4 25.18C16.36 24.52 17.23 23.64 18.01 22.54C18.79 21.42 19.46 20.18 20.02 18.82C20.58 17.44 21.01 16.03 21.31 14.59C21.61 13.13 21.76 11.74 21.76 10.42C21.76 9.84 21.72 9.22 21.64 8.56C21.56 7.88 21.42 7.3 21.22 6.82C21.04 6.34 20.77 6.1 20.41 6.1C20.07 6.1 19.7 6.32 19.3 6.76C18.9 7.18 18.51 7.72 18.13 8.38C17.75 9.04 17.41 9.74 17.11 10.48C16.83 11.2 16.63 11.85 16.51 12.43C15.83 12.29 15.34 12.07 15.04 11.77C14.76 11.47 14.62 11.11 14.62 10.69C14.62 10.15 14.81 9.55 15.19 8.89C15.57 8.23 16.06 7.6 16.66 7C17.28 6.38 17.92 5.87 18.58 5.47C19.26 5.07 19.89 4.87 20.47 4.87C21.07 4.87 21.55 5.09 21.91 5.53C22.29 5.95 22.58 6.5 22.78 7.18C22.98 7.86 23.12 8.59 23.2 9.37C23.28 10.13 23.32 10.84 23.32 11.5C23.32 13.54 23.07 15.41 22.57 17.11C22.07 18.79 21.39 20.28 20.53 21.58C19.69 22.88 18.74 23.98 17.68 24.88C16.64 25.78 15.56 26.46 14.44 26.92C13.34 27.38 12.28 27.61 11.26 27.61ZM25.7038 25.9C25.0238 25.9 24.4638 25.59 24.0238 24.97C23.6038 24.33 23.3938 23.6 23.3938 22.78C23.3938 22.22 23.4838 21.56 23.6638 20.8C23.8438 20.04 24.0738 19.3 24.3538 18.58C24.6538 17.86 24.9538 17.26 25.2538 16.78C25.5738 16.3 25.8638 16.06 26.1238 16.06C26.2638 16.06 26.4738 16.14 26.7538 16.3C27.0538 16.44 27.3138 16.62 27.5338 16.84C27.3138 17.16 27.0438 17.65 26.7238 18.31C26.4238 18.97 26.1538 19.68 25.9138 20.44C25.6738 21.2 25.5538 21.89 25.5538 22.51C25.5538 22.59 25.5638 22.78 25.5838 23.08C25.6238 23.38 25.7038 23.66 25.8238 23.92C25.9438 24.18 26.1538 24.31 26.4538 24.31C26.7938 24.31 27.1538 24.13 27.5338 23.77C27.9338 23.39 28.3338 22.91 28.7338 22.33C29.1538 21.73 29.5538 21.09 29.9338 20.41C30.3338 19.73 30.6838 19.07 30.9838 18.43C31.3038 17.79 31.5638 17.25 31.7638 16.81C31.9438 16.83 32.1738 16.88 32.4538 16.96C32.7538 17.04 33.0138 17.15 33.2338 17.29C33.4538 17.41 33.5638 17.59 33.5638 17.83C33.5638 17.89 33.4638 18.14 33.2638 18.58C33.0838 19 32.8638 19.51 32.6038 20.11C32.3638 20.71 32.1438 21.33 31.9438 21.97C31.7638 22.59 31.6738 23.14 31.6738 23.62C31.6738 23.9 31.7238 24.15 31.8238 24.37C31.9438 24.57 32.1638 24.67 32.4838 24.67C32.9038 24.67 33.4038 24.48 33.9838 24.1C34.5638 23.72 35.1638 23.17 35.7838 22.45C36.4038 21.73 36.9538 20.87 37.4338 19.87L37.8838 20.23C37.4438 21.31 36.8738 22.28 36.1738 23.14C35.4738 24 34.7238 24.67 33.9238 25.15C33.1238 25.65 32.3438 25.9 31.5838 25.9C31.0038 25.9 30.5638 25.76 30.2638 25.48C29.9838 25.22 29.7938 24.88 29.6938 24.46C29.5938 24.02 29.5338 23.58 29.5138 23.14C29.5138 23.04 29.5138 22.94 29.5138 22.84C29.5138 22.72 29.5138 22.62 29.5138 22.54C29.1738 23.08 28.8038 23.61 28.4038 24.13C28.0038 24.63 27.5738 25.05 27.1138 25.39C26.6738 25.73 26.2038 25.9 25.7038 25.9ZM39.396 26.38C38.516 26.38 37.806 26.12 37.266 25.6C36.726 25.08 36.456 24.29 36.456 23.23C36.456 22.41 36.606 21.39 36.906 20.17C37.226 18.95 37.626 17.69 38.106 16.39C37.966 16.35 37.796 16.32 37.596 16.3C37.416 16.26 37.236 16.2 37.056 16.12V15.19C37.376 15.23 37.636 15.26 37.836 15.28C38.056 15.3 38.276 15.32 38.496 15.34C38.916 14.28 39.366 13.26 39.846 12.28C40.346 11.28 40.836 10.39 41.316 9.61C41.816 8.83 42.286 8.22 42.726 7.78C43.166 7.32 43.556 7.09 43.896 7.09C44.096 7.09 44.286 7.17 44.466 7.33C44.646 7.47 44.736 7.68 44.736 7.96C44.736 8.36 44.526 8.93 44.106 9.67C43.706 10.41 43.206 11.28 42.606 12.28C42.006 13.26 41.426 14.31 40.866 15.43C41.026 15.43 41.186 15.43 41.346 15.43C41.506 15.43 41.656 15.43 41.796 15.43C42.676 15.43 43.466 15.42 44.166 15.4C44.886 15.36 45.616 15.3 46.356 15.22V16.21C45.256 16.31 44.246 16.39 43.326 16.45C42.406 16.51 41.526 16.55 40.686 16.57C40.626 16.57 40.566 16.57 40.506 16.57C40.446 16.57 40.386 16.57 40.326 16.57C39.906 17.55 39.536 18.56 39.216 19.6C38.916 20.62 38.766 21.62 38.766 22.6C38.766 23.42 38.896 24 39.156 24.34C39.416 24.68 39.826 24.85 40.386 24.85C41.386 24.85 42.406 24.4 43.446 23.5C44.506 22.58 45.426 21.34 46.206 19.78L46.626 20.08C46.106 21.26 45.456 22.33 44.676 23.29C43.916 24.25 43.086 25 42.186 25.54C41.286 26.1 40.356 26.38 39.396 26.38ZM50.9486 27.61C49.8886 27.53 49.1886 27.27 48.8486 26.83C48.5286 26.39 48.3686 25.84 48.3686 25.18C48.3686 24.44 48.4986 23.55 48.7586 22.51C49.0186 21.47 49.3586 20.36 49.7786 19.18C50.1986 18 50.6586 16.83 51.1586 15.67C50.9386 15.69 50.5886 15.72 50.1086 15.76C49.6486 15.8 49.1686 15.85 48.6686 15.91C48.1886 15.95 47.7986 16 47.4986 16.06C47.5586 15.44 47.7886 14.96 48.1886 14.62C48.6086 14.26 49.1386 14 49.7786 13.84C50.4386 13.68 51.1486 13.59 51.9086 13.57C52.4286 12.13 52.9586 10.73 53.4986 9.37C54.0586 7.99 54.6186 6.73 55.1786 5.59C55.0586 5.57 54.9186 5.56 54.7586 5.56C54.5986 5.54 54.3786 5.53 54.0986 5.53C52.8786 5.53 51.9286 5.66 51.2486 5.92C50.5886 6.18 50.1286 6.55 49.8686 7.03C49.6286 7.51 49.5086 8.1 49.5086 8.8C49.5086 9.3 49.5586 9.76 49.6586 10.18C49.7586 10.58 49.9086 11.02 50.1086 11.5C49.1686 11.34 48.4986 11.04 48.0986 10.6C47.6986 10.14 47.4986 9.57 47.4986 8.89C47.4986 7.85 47.8786 6.93 48.6386 6.13C49.4186 5.33 50.4586 4.7 51.7586 4.24C53.0786 3.78 54.5586 3.55 56.1986 3.55C57.2586 3.55 58.3186 3.62 59.3786 3.76C60.4386 3.9 61.4286 3.97 62.3486 3.97C62.8486 3.97 63.3286 3.94 63.7886 3.88C64.2486 3.8 64.7786 3.68 65.3786 3.52C64.4186 4.58 63.6286 5.29 63.0086 5.65C62.4086 6.01 61.8186 6.19 61.2386 6.19C60.7586 6.19 60.1386 6.13 59.3786 6.01C58.6186 5.87 57.7986 5.77 56.9186 5.71C56.6586 6.35 56.3786 7.09 56.0786 7.93C55.7786 8.77 55.4686 9.67 55.1486 10.63C54.8486 11.59 54.5386 12.58 54.2186 13.6C55.2586 13.68 56.1986 13.77 57.0386 13.87C57.8786 13.97 58.8086 14.04 59.8286 14.08C59.5886 14.4 59.3386 14.66 59.0786 14.86C58.8386 15.04 58.5086 15.17 58.0886 15.25C57.6886 15.33 57.1286 15.39 56.4086 15.43C55.7086 15.47 54.7886 15.5 53.6486 15.52C53.4886 16.12 53.3186 16.73 53.1386 17.35C52.9586 17.97 52.7986 18.5 52.6586 18.94C52.5386 19.38 52.4586 19.65 52.4186 19.75C51.8586 21.67 51.4686 23.24 51.2486 24.46C51.0486 25.66 50.9486 26.71 50.9486 27.61ZM62.9179 25.9C61.9779 25.9 61.3179 25.59 60.9379 24.97C60.5779 24.33 60.3979 23.58 60.3979 22.72C60.3979 21.74 60.5779 20.59 60.9379 19.27C61.2979 17.95 61.7679 16.57 62.3479 15.13C62.9479 13.67 63.5979 12.25 64.2979 10.87C65.0179 9.47 65.7379 8.21 66.4579 7.09C67.1779 5.97 67.8379 5.08 68.4379 4.42C69.0579 3.74 69.5579 3.4 69.9379 3.4C70.1979 3.4 70.4179 3.54 70.5979 3.82C70.7779 4.08 70.9179 4.4 71.0179 4.78C71.1379 5.14 71.1979 5.48 71.1979 5.8C71.1979 6.34 71.0579 7.05 70.7779 7.93C70.5179 8.79 70.1379 9.74 69.6379 10.78C69.1579 11.82 68.5779 12.89 67.8979 13.99C67.2379 15.07 66.4979 16.1 65.6779 17.08C64.8779 18.06 64.0179 18.91 63.0979 19.63C63.0179 20.13 62.9379 20.63 62.8579 21.13C62.7979 21.61 62.7679 22.05 62.7679 22.45C62.7679 23.17 62.8879 23.7 63.1279 24.04C63.3679 24.36 63.6779 24.52 64.0579 24.52C64.5579 24.52 65.0679 24.29 65.5879 23.83C66.1279 23.35 66.6379 22.75 67.1179 22.03C67.6179 21.29 68.0479 20.53 68.4079 19.75L69.1279 20.14C68.2679 21.92 67.3079 23.33 66.2479 24.37C65.1879 25.39 64.0779 25.9 62.9179 25.9ZM63.6379 17.77C64.3179 17.03 64.9579 16.23 65.5579 15.37C66.1779 14.49 66.7379 13.6 67.2379 12.7C67.7579 11.8 68.2079 10.93 68.5879 10.09C68.9679 9.25 69.2579 8.5 69.4579 7.84C69.6779 7.16 69.7979 6.62 69.8179 6.22C69.8179 6.2 69.8179 6.19 69.8179 6.19C69.8179 6.17 69.8179 6.15 69.8179 6.13C69.6579 6.13 69.3979 6.36 69.0379 6.82C68.6979 7.26 68.2879 7.87 67.8079 8.65C67.3279 9.43 66.8279 10.32 66.3079 11.32C65.8079 12.32 65.3179 13.38 64.8379 14.5C64.3779 15.6 63.9779 16.69 63.6379 17.77ZM69.6714 25.96C68.7714 25.96 68.1514 25.66 67.8114 25.06C67.4914 24.48 67.3314 23.84 67.3314 23.14C67.3314 22.5 67.4314 21.85 67.6314 21.19C67.8314 20.51 68.1014 19.88 68.4414 19.3C68.8014 18.72 69.1914 18.26 69.6114 17.92C70.0514 17.56 70.4914 17.38 70.9314 17.38C71.0714 17.38 71.2314 17.41 71.4114 17.47C71.6114 17.51 71.7514 17.58 71.8314 17.68C71.5914 17.98 71.3414 18.35 71.0814 18.79C70.8414 19.23 70.6114 19.7 70.3914 20.2C70.1914 20.68 70.0314 21.17 69.9114 21.67C69.7914 22.17 69.7314 22.63 69.7314 23.05C69.7314 23.45 69.8014 23.78 69.9414 24.04C70.1014 24.3 70.3714 24.43 70.7514 24.43C71.1314 24.43 71.5814 24.22 72.1014 23.8C72.6414 23.36 73.1514 22.86 73.6314 22.3C72.9914 21.72 72.5314 21.09 72.2514 20.41C71.9714 19.71 71.8314 18.87 71.8314 17.89C71.8314 17.47 71.9314 16.99 72.1314 16.45C72.3514 15.91 72.6914 15.44 73.1514 15.04C73.6314 14.64 74.2714 14.44 75.0714 14.44C75.9314 14.44 76.5314 14.68 76.8714 15.16C77.2314 15.64 77.4114 16.21 77.4114 16.87C77.4114 17.61 77.2114 18.44 76.8114 19.36C76.4314 20.28 75.9714 21.15 75.4314 21.97C75.6714 22.09 75.9514 22.15 76.2714 22.15C76.5714 22.15 76.9314 22.08 77.3514 21.94C77.7714 21.8 78.1814 21.57 78.5814 21.25C78.9814 20.91 79.3014 20.46 79.5414 19.9L80.0814 20.29C79.6414 21.31 79.0514 22.06 78.3114 22.54C77.5914 23 76.8814 23.23 76.1814 23.23C75.9214 23.23 75.6614 23.21 75.4014 23.17C75.1414 23.11 74.9014 23.04 74.6814 22.96C74.0014 23.76 73.2214 24.46 72.3414 25.06C71.4614 25.66 70.5714 25.96 69.6714 25.96ZM74.4114 21.34C74.8914 20.64 75.3014 19.89 75.6414 19.09C75.9814 18.29 76.1514 17.55 76.1514 16.87C76.1514 16.41 76.0814 16.08 75.9414 15.88C75.8014 15.66 75.5914 15.55 75.3114 15.55C74.9314 15.55 74.5414 15.82 74.1414 16.36C73.7414 16.9 73.5414 17.58 73.5414 18.4C73.5414 18.82 73.6114 19.33 73.7514 19.93C73.9114 20.53 74.1314 21 74.4114 21.34ZM87.5835 26.14C86.9035 26.14 86.4435 25.84 86.2035 25.24C85.9835 24.66 85.8535 23.96 85.8135 23.14C85.8335 22.9 85.8435 22.57 85.8435 22.15C85.8635 21.73 85.8835 21.38 85.9035 21.1C85.4835 21.86 85.0235 22.61 84.5235 23.35C84.0235 24.09 83.4935 24.7 82.9335 25.18C82.3735 25.66 81.7835 25.9 81.1635 25.9C80.4835 25.9 79.9235 25.6 79.4835 25C79.0435 24.38 78.8235 23.64 78.8235 22.78C78.8235 22.2 78.9135 21.53 79.0935 20.77C79.2935 20.01 79.5335 19.27 79.8135 18.55C80.1135 17.83 80.4135 17.23 80.7135 16.75C81.0335 16.27 81.3135 16.03 81.5535 16.03C81.6935 16.03 81.9335 16.11 82.2735 16.27C82.6335 16.43 82.8535 16.64 82.9335 16.9C82.7135 17.22 82.4435 17.71 82.1235 18.37C81.8235 19.03 81.5535 19.74 81.3135 20.5C81.0935 21.24 80.9835 21.92 80.9835 22.54C80.9835 22.66 80.9935 22.87 81.0135 23.17C81.0535 23.45 81.1435 23.71 81.2835 23.95C81.4235 24.19 81.6335 24.31 81.9135 24.31C82.3535 24.31 82.8135 24.04 83.2935 23.5C83.7935 22.96 84.2935 22.28 84.7935 21.46C85.2935 20.64 85.7635 19.8 86.2035 18.94C86.3835 18.08 86.5335 17.46 86.6535 17.08C86.7735 16.7 86.8935 16.46 87.0135 16.36C87.1535 16.26 87.3135 16.21 87.4935 16.21C87.8735 16.21 88.1635 16.29 88.3635 16.45C88.5835 16.59 88.6935 16.8 88.6935 17.08C88.6935 17.1 88.6735 17.19 88.6335 17.35C88.5935 17.49 88.5635 17.58 88.5435 17.62C88.4235 18.04 88.3135 18.55 88.2135 19.15C88.1135 19.73 88.0335 20.36 87.9735 21.04C87.9135 21.7 87.8835 22.37 87.8835 23.05C87.8835 23.53 87.9135 23.91 87.9735 24.19C88.0335 24.45 88.1835 24.58 88.4235 24.58C88.7035 24.58 89.0235 24.41 89.3835 24.07C89.7635 23.73 90.1535 23.28 90.5535 22.72C90.9735 22.16 91.3735 21.55 91.7535 20.89C92.1535 20.21 92.5135 19.53 92.8335 18.85C92.8335 17.81 92.9035 17.02 93.0435 16.48C93.2035 15.94 93.4035 15.57 93.6435 15.37C93.9035 15.15 94.1835 15.04 94.4835 15.04C94.9835 15.04 95.3235 15.2 95.5035 15.52C95.7035 15.84 95.8035 16.11 95.8035 16.33C95.8035 16.53 95.7535 16.72 95.6535 16.9C95.5535 17.06 95.4735 17.21 95.4135 17.35C95.2735 17.65 95.1335 18.01 94.9935 18.43C94.8735 18.85 94.8135 19.38 94.8135 20.02C94.8135 20.36 94.8435 20.71 94.9035 21.07C94.9835 21.41 95.1135 21.69 95.2935 21.91C95.4935 22.13 95.7735 22.24 96.1335 22.24C96.4935 22.24 96.8535 22.08 97.2135 21.76C97.5935 21.44 98.0035 20.84 98.4435 19.96L99.0135 20.41C98.5735 21.45 98.0735 22.17 97.5135 22.57C96.9535 22.95 96.4135 23.14 95.8935 23.14C95.2335 23.14 94.6735 22.9 94.2135 22.42C93.7535 21.94 93.3935 21.35 93.1335 20.65C92.6335 21.51 92.0735 22.37 91.4535 23.23C90.8535 24.07 90.2235 24.76 89.5635 25.3C88.9035 25.86 88.2435 26.14 87.5835 26.14ZM111.212 27.61C110.152 27.53 109.452 27.27 109.112 26.83C108.792 26.39 108.632 25.84 108.632 25.18C108.632 24.44 108.762 23.55 109.022 22.51C109.282 21.47 109.622 20.36 110.042 19.18C110.462 18 110.922 16.83 111.422 15.67C111.202 15.69 110.852 15.72 110.372 15.76C109.912 15.8 109.432 15.85 108.932 15.91C108.452 15.95 108.062 16 107.762 16.06C107.822 15.44 108.052 14.96 108.452 14.62C108.872 14.26 109.402 14 110.042 13.84C110.702 13.68 111.412 13.59 112.172 13.57C112.692 12.13 113.222 10.73 113.762 9.37C114.322 7.99 114.882 6.73 115.442 5.59C115.322 5.57 115.182 5.56 115.022 5.56C114.862 5.54 114.642 5.53 114.362 5.53C113.142 5.53 112.192 5.66 111.512 5.92C110.852 6.18 110.392 6.55 110.132 7.03C109.892 7.51 109.772 8.1 109.772 8.8C109.772 9.3 109.822 9.76 109.922 10.18C110.022 10.58 110.172 11.02 110.372 11.5C109.432 11.34 108.762 11.04 108.362 10.6C107.962 10.14 107.762 9.57 107.762 8.89C107.762 7.85 108.142 6.93 108.902 6.13C109.682 5.33 110.722 4.7 112.022 4.24C113.342 3.78 114.822 3.55 116.462 3.55C117.522 3.55 118.582 3.62 119.642 3.76C120.702 3.9 121.692 3.97 122.612 3.97C123.112 3.97 123.592 3.94 124.052 3.88C124.512 3.8 125.042 3.68 125.642 3.52C124.682 4.58 123.892 5.29 123.272 5.65C122.672 6.01 122.082 6.19 121.502 6.19C121.022 6.19 120.402 6.13 119.642 6.01C118.882 5.87 118.062 5.77 117.182 5.71C116.922 6.35 116.642 7.09 116.342 7.93C116.042 8.77 115.732 9.67 115.412 10.63C115.112 11.59 114.802 12.58 114.482 13.6C115.522 13.68 116.462 13.77 117.302 13.87C118.142 13.97 119.072 14.04 120.092 14.08C119.852 14.4 119.602 14.66 119.342 14.86C119.102 15.04 118.772 15.17 118.352 15.25C117.952 15.33 117.392 15.39 116.672 15.43C115.972 15.47 115.052 15.5 113.912 15.52C113.752 16.12 113.582 16.73 113.402 17.35C113.222 17.97 113.062 18.5 112.922 18.94C112.802 19.38 112.722 19.65 112.682 19.75C112.122 21.67 111.732 23.24 111.512 24.46C111.312 25.66 111.212 26.71 111.212 27.61ZM120.934 26.41C120.274 26.41 119.704 26.19 119.224 25.75C118.724 25.31 118.474 24.65 118.474 23.77C118.474 23.07 118.634 22.31 118.954 21.49C119.274 20.67 119.714 19.86 120.274 19.06C120.834 18.26 121.474 17.54 122.194 16.9C122.914 16.24 123.684 15.71 124.504 15.31C125.324 14.91 126.144 14.71 126.964 14.71C127.824 14.71 128.554 14.93 129.154 15.37C129.754 15.81 130.054 16.39 130.054 17.11C130.054 17.65 129.864 18.04 129.484 18.28C129.104 18.52 128.654 18.59 128.134 18.49C128.174 18.31 128.204 18.13 128.224 17.95C128.264 17.77 128.284 17.58 128.284 17.38C128.284 16.98 128.204 16.62 128.044 16.3C127.884 15.98 127.544 15.82 127.024 15.82C126.464 15.82 125.894 16.01 125.314 16.39C124.734 16.77 124.174 17.27 123.634 17.89C123.114 18.49 122.644 19.16 122.224 19.9C121.804 20.62 121.474 21.33 121.234 22.03C120.994 22.73 120.874 23.36 120.874 23.92C120.874 24.56 121.104 24.88 121.564 24.88C122.024 24.88 122.534 24.66 123.094 24.22C123.654 23.76 124.214 23.19 124.774 22.51C125.354 21.83 125.904 21.14 126.424 20.44C126.944 19.72 127.394 19.11 127.774 18.61C127.834 18.51 127.914 18.46 128.014 18.46C128.094 18.48 128.244 18.53 128.464 18.61C128.704 18.67 128.924 18.77 129.124 18.91C129.324 19.05 129.424 19.23 129.424 19.45C129.424 19.65 129.334 19.91 129.154 20.23C128.994 20.53 128.794 20.87 128.554 21.25C128.334 21.61 128.134 21.98 127.954 22.36C127.794 22.72 127.714 23.07 127.714 23.41C127.714 23.67 127.784 23.92 127.924 24.16C128.064 24.38 128.294 24.49 128.614 24.49C129.094 24.49 129.764 24.14 130.624 23.44C131.504 22.72 132.394 21.51 133.294 19.81L133.864 20.38C133.384 21.46 132.804 22.42 132.124 23.26C131.464 24.08 130.764 24.72 130.024 25.18C129.284 25.66 128.534 25.9 127.774 25.9C126.954 25.9 126.344 25.64 125.944 25.12C125.544 24.6 125.324 24.04 125.284 23.44C125.284 23.4 125.284 23.37 125.284 23.35C125.284 23.33 125.284 23.31 125.284 23.29C124.484 24.25 123.744 25.01 123.064 25.57C122.404 26.13 121.694 26.41 120.934 26.41ZM136.094 26.53C135.094 26.53 134.284 26.32 133.664 25.9C133.064 25.5 132.634 24.99 132.374 24.37C132.114 23.73 131.984 23.08 131.984 22.42C131.984 21.84 132.064 21.39 132.224 21.07C132.384 20.75 132.584 20.52 132.824 20.38C133.064 20.22 133.284 20.1 133.484 20.02C133.704 19.94 133.864 19.85 133.964 19.75C134.464 19.23 134.974 18.63 135.494 17.95C136.034 17.25 136.494 16.48 136.874 15.64V15.34C136.874 14.54 137.004 13.98 137.264 13.66C137.544 13.32 137.864 13.15 138.224 13.15C138.464 13.15 138.634 13.21 138.734 13.33C138.854 13.45 138.924 13.59 138.944 13.75C138.944 13.87 138.914 14.01 138.854 14.17C138.814 14.33 138.794 14.55 138.794 14.83C138.794 15.43 138.934 16.12 139.214 16.9C139.514 17.66 139.804 18.47 140.084 19.33C140.384 20.19 140.534 21.07 140.534 21.97C140.534 22.21 140.524 22.43 140.504 22.63C140.484 22.83 140.454 23.02 140.414 23.2C141.034 23.04 141.644 22.7 142.244 22.18C142.844 21.64 143.414 20.85 143.954 19.81L144.314 20.08C143.934 21.22 143.384 22.14 142.664 22.84C141.944 23.52 141.104 23.94 140.144 24.1C139.824 24.92 139.294 25.53 138.554 25.93C137.834 26.33 137.014 26.53 136.094 26.53ZM135.884 25.21C136.284 25.21 136.654 25.11 136.994 24.91C137.334 24.71 137.604 24.42 137.804 24.04C136.984 23.86 136.244 23.54 135.584 23.08C134.924 22.62 134.414 22.15 134.054 21.67C133.774 21.73 133.634 22 133.634 22.48C133.634 23.14 133.824 23.76 134.204 24.34C134.584 24.92 135.144 25.21 135.884 25.21ZM138.044 23.14C138.084 23 138.104 22.84 138.104 22.66C138.124 22.46 138.134 22.31 138.134 22.21C138.114 21.31 137.994 20.42 137.774 19.54C137.554 18.66 137.334 17.76 137.114 16.84C136.754 17.46 136.334 18.13 135.854 18.85C135.374 19.57 134.924 20.15 134.504 20.59C134.824 21.13 135.294 21.64 135.914 22.12C136.534 22.6 137.244 22.94 138.044 23.14ZM144.482 26.14C144.042 26.14 143.722 25.8 143.522 25.12C143.342 24.44 143.252 23.65 143.252 22.75C143.252 21.83 143.402 20.72 143.702 19.42C144.022 18.12 144.442 16.75 144.962 15.31C145.502 13.87 146.092 12.46 146.732 11.08C147.392 9.7 148.062 8.45 148.742 7.33C149.442 6.19 150.102 5.28 150.722 4.6C151.362 3.92 151.922 3.58 152.402 3.58C152.822 3.58 153.142 3.81 153.362 4.27C153.582 4.73 153.692 5.21 153.692 5.71C153.692 6.25 153.562 6.92 153.302 7.72C153.062 8.5 152.722 9.34 152.282 10.24C151.842 11.14 151.322 12.03 150.722 12.91C150.142 13.77 149.502 14.56 148.802 15.28C148.122 16 147.412 16.58 146.672 17.02C146.412 17.7 146.202 18.34 146.042 18.94C145.902 19.52 145.802 20.07 145.742 20.59C145.682 21.11 145.652 21.62 145.652 22.12C145.652 22.22 145.652 22.33 145.652 22.45C145.672 22.55 145.682 22.65 145.682 22.75C145.762 22.63 145.892 22.32 146.072 21.82C146.252 21.32 146.492 20.74 146.792 20.08C147.112 19.4 147.502 18.74 147.962 18.1C148.422 17.44 148.962 16.9 149.582 16.48C150.202 16.04 150.912 15.82 151.712 15.82C152.392 15.82 152.922 15.98 153.302 16.3C153.682 16.6 153.952 16.98 154.112 17.44C154.272 17.88 154.352 18.33 154.352 18.79C154.352 19.43 154.242 20.03 154.022 20.59C153.822 21.15 153.612 21.68 153.392 22.18C153.192 22.66 153.092 23.12 153.092 23.56C153.092 23.92 153.172 24.17 153.332 24.31C153.492 24.45 153.682 24.52 153.902 24.52C154.342 24.52 154.852 24.3 155.432 23.86C156.032 23.42 156.622 22.84 157.202 22.12C157.802 21.38 158.312 20.57 158.732 19.69L159.212 20.2C158.752 21.2 158.212 22.12 157.592 22.96C156.972 23.8 156.292 24.47 155.552 24.97C154.812 25.47 154.012 25.72 153.152 25.72C152.392 25.72 151.812 25.52 151.412 25.12C151.012 24.72 150.812 24.22 150.812 23.62C150.812 23.2 150.882 22.74 151.022 22.24C151.182 21.72 151.332 21.2 151.472 20.68C151.612 20.16 151.682 19.69 151.682 19.27C151.682 18.79 151.572 18.46 151.352 18.28C151.152 18.1 150.902 18.01 150.602 18.01C150.102 18.01 149.652 18.21 149.252 18.61C148.852 18.99 148.492 19.49 148.172 20.11C147.852 20.73 147.552 21.39 147.272 22.09C146.992 22.77 146.712 23.42 146.432 24.04C146.152 24.66 145.852 25.16 145.532 25.54C145.232 25.94 144.882 26.14 144.482 26.14ZM147.302 15.1C147.822 14.64 148.322 14.09 148.802 13.45C149.282 12.81 149.722 12.15 150.122 11.47C150.542 10.77 150.902 10.1 151.202 9.46C151.522 8.8 151.772 8.21 151.952 7.69C152.132 7.17 152.232 6.77 152.252 6.49C152.252 6.47 152.252 6.46 152.252 6.46C152.252 6.44 152.252 6.42 152.252 6.4C152.132 6.4 151.872 6.65 151.472 7.15C151.092 7.63 150.642 8.29 150.122 9.13C149.622 9.95 149.112 10.88 148.592 11.92C148.092 12.96 147.662 14.02 147.302 15.1ZM160.326 25.9C159.446 25.9 158.786 25.64 158.346 25.12C157.906 24.6 157.686 23.97 157.686 23.23C157.686 22.77 157.766 22.19 157.926 21.49C158.086 20.79 158.306 20.06 158.586 19.3C158.886 18.52 159.226 17.79 159.606 17.11C159.986 16.43 160.396 15.88 160.836 15.46C161.276 15.02 161.716 14.8 162.156 14.8C162.396 14.8 162.606 14.88 162.786 15.04C162.966 15.18 163.056 15.39 163.056 15.67C163.056 15.93 162.896 16.32 162.576 16.84C162.276 17.36 161.916 17.96 161.496 18.64C161.096 19.32 160.736 20.03 160.416 20.77C160.116 21.49 159.966 22.18 159.966 22.84C159.966 23.48 160.076 23.91 160.296 24.13C160.536 24.33 160.876 24.43 161.316 24.43C161.996 24.43 162.736 24.09 163.536 23.41C164.336 22.73 165.166 21.54 166.026 19.84L166.476 20.32C165.776 22.08 164.886 23.45 163.806 24.43C162.726 25.41 161.566 25.9 160.326 25.9ZM163.866 12.37C163.486 12.37 163.136 12.28 162.816 12.1C162.516 11.9 162.366 11.6 162.366 11.2C162.366 10.72 162.626 10.31 163.146 9.97C163.666 9.63 164.206 9.46 164.766 9.46C165.126 9.46 165.426 9.54 165.666 9.7C165.926 9.86 166.056 10.15 166.056 10.57C166.056 10.99 165.826 11.4 165.366 11.8C164.906 12.18 164.406 12.37 163.866 12.37ZM167.23 25.96C166.33 25.96 165.71 25.66 165.37 25.06C165.05 24.48 164.89 23.84 164.89 23.14C164.89 22.5 164.99 21.85 165.19 21.19C165.39 20.51 165.66 19.88 166 19.3C166.36 18.72 166.75 18.26 167.17 17.92C167.61 17.56 168.05 17.38 168.49 17.38C168.63 17.38 168.79 17.41 168.97 17.47C169.17 17.51 169.31 17.58 169.39 17.68C169.15 17.98 168.9 18.35 168.64 18.79C168.4 19.23 168.17 19.7 167.95 20.2C167.75 20.68 167.59 21.17 167.47 21.67C167.35 22.17 167.29 22.63 167.29 23.05C167.29 23.45 167.36 23.78 167.5 24.04C167.66 24.3 167.93 24.43 168.31 24.43C168.69 24.43 169.14 24.22 169.66 23.8C170.2 23.36 170.71 22.86 171.19 22.3C170.55 21.72 170.09 21.09 169.81 20.41C169.53 19.71 169.39 18.87 169.39 17.89C169.39 17.47 169.49 16.99 169.69 16.45C169.91 15.91 170.25 15.44 170.71 15.04C171.19 14.64 171.83 14.44 172.63 14.44C173.49 14.44 174.09 14.68 174.43 15.16C174.79 15.64 174.97 16.21 174.97 16.87C174.97 17.61 174.77 18.44 174.37 19.36C173.99 20.28 173.53 21.15 172.99 21.97C173.23 22.09 173.51 22.15 173.83 22.15C174.13 22.15 174.49 22.08 174.91 21.94C175.33 21.8 175.74 21.57 176.14 21.25C176.54 20.91 176.86 20.46 177.1 19.9L177.64 20.29C177.2 21.31 176.61 22.06 175.87 22.54C175.15 23 174.44 23.23 173.74 23.23C173.48 23.23 173.22 23.21 172.96 23.17C172.7 23.11 172.46 23.04 172.24 22.96C171.56 23.76 170.78 24.46 169.9 25.06C169.02 25.66 168.13 25.96 167.23 25.96ZM171.97 21.34C172.45 20.64 172.86 19.89 173.2 19.09C173.54 18.29 173.71 17.55 173.71 16.87C173.71 16.41 173.64 16.08 173.5 15.88C173.36 15.66 173.15 15.55 172.87 15.55C172.49 15.55 172.1 15.82 171.7 16.36C171.3 16.9 171.1 17.58 171.1 18.4C171.1 18.82 171.17 19.33 171.31 19.93C171.47 20.53 171.69 21 171.97 21.34ZM186.522 25.6C185.742 25.6 185.142 25.4 184.722 25C184.322 24.62 184.122 24.13 184.122 23.53C184.122 23.13 184.192 22.71 184.332 22.27C184.472 21.81 184.612 21.35 184.752 20.89C184.892 20.43 184.962 19.99 184.962 19.57C184.962 19.13 184.852 18.83 184.632 18.67C184.432 18.49 184.192 18.4 183.912 18.4C183.312 18.4 182.692 18.65 182.052 19.15C181.432 19.63 180.822 20.24 180.222 20.98C179.642 21.72 179.092 22.49 178.572 23.29C178.052 24.09 177.602 24.81 177.222 25.45C176.842 25.45 176.482 25.38 176.142 25.24C175.802 25.12 175.512 24.9 175.272 24.58C175.292 24.48 175.412 24.18 175.632 23.68C175.832 23.16 176.062 22.55 176.322 21.85C176.582 21.13 176.812 20.38 177.012 19.6C177.212 18.82 177.312 18.11 177.312 17.47C177.452 17.31 177.662 17.15 177.942 16.99C178.242 16.83 178.552 16.75 178.872 16.75C179.572 16.75 179.922 17.05 179.922 17.65C179.922 17.89 179.872 18.25 179.772 18.73C179.692 19.19 179.572 19.72 179.412 20.32C179.932 19.62 180.502 18.96 181.122 18.34C181.742 17.72 182.382 17.22 183.042 16.84C183.722 16.44 184.402 16.24 185.082 16.24C185.942 16.24 186.572 16.53 186.972 17.11C187.392 17.69 187.602 18.33 187.602 19.03C187.602 19.63 187.502 20.19 187.302 20.71C187.102 21.23 186.902 21.72 186.702 22.18C186.522 22.64 186.432 23.09 186.432 23.53C186.432 23.85 186.502 24.08 186.642 24.22C186.802 24.34 186.972 24.4 187.152 24.4C187.632 24.4 188.132 24.17 188.652 23.71C189.172 23.25 189.662 22.67 190.122 21.97C190.602 21.25 191.022 20.53 191.382 19.81L191.892 20.23C191.472 21.21 190.992 22.11 190.452 22.93C189.932 23.73 189.342 24.38 188.682 24.88C188.042 25.36 187.322 25.6 186.522 25.6Z" fill="#FF413D"/>
</g>
</g>
<defs>
<filter id="filter0_d_1_49" x="0.960022" y="3.39999" width="194.932" height="32.21" filterUnits="userSpaceOnUse" color-interpolation-filters="sRGB">
<feFlood flood-opacity="0" result="BackgroundImageFix"/>
<feColorMatrix in="SourceAlpha" type="matrix" values="0 0 0 0 0 0 0 0 0 0 0 0 0 0 0 0 0 0 127 0" result="hardAlpha"/>
<feOffset dy="4"/>
<feGaussianBlur stdDeviation="2"/>
<feComposite in2="hardAlpha" operator="out"/>
<feColorMatrix type="matrix" values="0 0 0 0 0 0 0 0 0 0 0 0 0 0 0 0 0 0 0.25 0"/>
<feBlend mode="normal" in2="BackgroundImageFix" result="effect1_dropShadow_1_49"/>
<feBlend mode="normal" in="SourceGraphic" in2="effect1_dropShadow_1_49" result="shape"/>
</filter>
<filter id="filter1_d_1_49" x="0.960022" y="3.39999" width="194.932" height="32.21" filterUnits="userSpaceOnUse" color-interpolation-filters="sRGB">
<feFlood flood-opacity="0" result="BackgroundImageFix"/>
<feColorMatrix in="SourceAlpha" type="matrix" values="0 0 0 0 0 0 0 0 0 0 0 0 0 0 0 0 0 0 127 0" result="hardAlpha"/>
<feOffset dy="4"/>
<feGaussianBlur stdDeviation="2"/>
<feComposite in2="hardAlpha" operator="out"/>
<feColorMatrix type="matrix" values="0 0 0 0 0 0 0 0 0 0 0 0 0 0 0 0 0 0 0.25 0"/>
<feBlend mode="normal" in2="BackgroundImageFix" result="effect1_dropShadow_1_49"/>
<feBlend mode="normal" in="SourceGraphic" in2="effect1_dropShadow_1_49" result="shape"/>
</filter>
</defs>
</svg>
